<svg width="139" height="48" viewBox="0 0 139 48" fill="none" xmlns="http://www.w3.org/2000/svg">
<path d="M33.3885 45.4142L33.3884 45.4142L33.3833 45.4165C31.4935 46.268 29.5341 46.7482 27.5501 47.0862C27.2718 47.1337 27.0057 47.1644 26.7326 47.196C26.5339 47.2189 26.3315 47.2423 26.1181 47.2728C25.6309 47.3425 25.1324 47.4454 24.6469 47.6623C24.6423 47.6643 24.6189 47.6712 24.5786 47.6697C24.5397 47.6683 24.5069 47.6599 24.4895 47.6521C23.6813 47.2929 22.8403 47.1824 22.0214 47.1141C21.8449 47.0994 21.6701 47.0867 21.4969 47.074C20.8548 47.0271 20.2332 46.9818 19.6214 46.8439C15.7055 45.9612 12.1735 44.3772 9.12678 41.7786C7.19299 40.1293 5.50254 38.2739 4.20292 36.0978C2.379 33.0438 1.20182 29.78 0.921858 26.2281C0.919744 26.2013 0.917821 26.1723 0.915793 26.1417C0.908051 26.0251 0.898792 25.8856 0.87168 25.757C0.835216 25.584 0.762223 25.4002 0.600713 25.2458C0.115944 24.7824 0.199974 24.1316 0.454433 23.6676C0.794811 23.047 0.850638 22.4398 0.902488 21.8759L0.905058 21.8479C1.41678 16.2908 3.65911 11.5398 7.58061 7.57818C10.0152 5.11866 12.8667 3.26224 16.1318 2.07842C18.0914 1.3679 20.1227 0.94022 22.2077 0.728012C22.5069 0.697562 22.7926 0.577893 23.0382 0.475027C23.0898 0.453404 23.1396 0.432523 23.1875 0.413369C23.4812 0.295759 23.7349 0.222833 24.0104 0.27323C24.0796 0.28588 24.1449 0.282366 24.1942 0.277056C24.2316 0.273038 24.2719 0.266341 24.3023 0.261293C24.3105 0.259933 24.318 0.258693 24.3245 0.257657C24.3525 0.253182 24.3704 0.251054 24.3823 0.250315C25.0933 0.672078 25.8524 0.813908 26.5932 0.888913C26.8473 0.914642 27.095 0.932501 27.3383 0.950044C27.8296 0.98547 28.303 1.01961 28.7755 1.11466C32.5977 1.8836 36.0024 3.47845 38.9989 5.91541C43.797 9.81756 46.557 14.8801 47.4335 20.9781C47.527 21.6284 47.6479 22.2426 47.9789 22.8922C48.2008 23.3277 48.2632 24.0011 47.8218 24.5307C47.605 24.7908 47.5459 25.1028 47.5275 25.3819C47.5188 25.5137 47.5189 25.6473 47.5189 25.7703L47.5189 25.793C47.519 25.9258 47.5183 26.0456 47.5088 26.1575C47.118 30.7447 45.4254 34.8095 42.5726 38.403C40.1219 41.4901 37.0894 43.847 33.3885 45.4142ZM24.3957 0.25015C24.3957 0.250159 24.3954 0.250144 24.3948 0.250071L24.3957 0.25015ZM23.0522 9.13522L22.9968 8.94446L22.7984 8.9553C22.7001 8.96067 22.5981 8.96381 22.4946 8.967C22.263 8.97414 22.0233 8.98153 21.798 9.01476C15.5079 9.94213 10.1988 15.1876 9.212 21.444L9.20943 21.4603C9.14271 21.8833 9.08927 22.2221 9.07747 22.4815C9.06584 22.7372 9.08913 22.9872 9.2491 23.1729C9.40918 23.3587 9.6529 23.4185 9.90722 23.4444C10.1651 23.4707 10.5075 23.4673 10.9349 23.4631L10.9515 23.463C11.2722 23.4598 11.49 23.4582 11.649 23.4742C11.8086 23.4903 11.8578 23.5206 11.8782 23.5398C11.8995 23.5599 11.933 23.6088 11.9617 23.7685C11.988 23.915 12.0038 24.1104 12.0262 24.3885C12.0281 24.4116 12.03 24.4353 12.032 24.4595C12.055 24.7429 12.0213 24.8434 11.9879 24.8842C11.9616 24.9162 11.8812 24.973 11.5847 24.975C9.765 24.9871 7.94444 25.0222 6.12571 25.0573C5.2962 25.0733 4.46708 25.0894 3.6386 25.1032C3.39798 25.1072 3.19173 25.1166 3.02544 25.1475C2.85916 25.1785 2.69559 25.2373 2.57658 25.3701C2.45628 25.5044 2.41759 25.6736 2.40953 25.843C2.40153 26.0112 2.42238 26.2151 2.4549 26.4519C2.63872 27.7908 2.90758 29.1146 3.32826 30.4136C5.01665 35.6272 8.17387 39.7055 12.8649 42.578C15.9201 44.4489 19.2569 45.4584 22.8221 45.736C23.1461 45.7612 23.4316 45.7083 23.6114 45.4857C23.7758 45.282 23.7926 45.001 23.7828 44.7453C23.7419 43.6727 23.7416 42.5996 23.7413 41.5209C23.7413 41.3538 23.7413 41.1865 23.7411 41.019C23.7396 39.7733 23.7298 38.5208 23.648 37.2674C23.623 36.8828 23.608 36.6163 23.6195 36.4236C23.6311 36.2275 23.6681 36.1678 23.6917 36.1444C23.7169 36.1194 23.7803 36.0824 23.9798 36.0665C24.1716 36.0513 24.4316 36.0583 24.8013 36.0683L24.8212 36.0688C25.0393 36.0747 25.1317 36.1141 25.1725 36.1508C25.203 36.1782 25.2489 36.2448 25.2423 36.4503C25.2351 36.6742 25.2407 36.8994 25.2461 37.116C25.2471 37.1557 25.2481 37.1951 25.249 37.2342C25.2549 37.4902 25.2572 37.7353 25.2374 37.9758C25.2097 38.3111 25.2551 38.6268 25.4777 38.8292C25.6993 39.0308 26.0153 39.0458 26.3346 38.9931C28.9977 38.5537 31.4606 37.6232 33.6434 35.7859C35.0178 34.8464 36.0359 33.58 36.9247 32.2488C38.2126 30.32 38.997 28.1863 39.3179 25.8924C39.3526 25.6444 39.3761 25.4322 39.3705 25.2591C39.3649 25.0859 39.3294 24.9104 39.2072 24.7721C39.0854 24.6343 38.9157 24.5768 38.7446 24.5486C38.5732 24.5203 38.3591 24.5151 38.1076 24.5161C37.9977 24.5164 37.8825 24.5143 37.7642 24.5122C37.4864 24.5071 37.1915 24.5017 36.9087 24.5277C36.6254 24.5538 36.508 24.4951 36.4595 24.4434C36.4097 24.3905 36.3613 24.2702 36.3973 24.0024C36.4172 23.8549 36.406 23.7005 36.397 23.5772C36.3964 23.5695 36.3959 23.5618 36.3953 23.5543C36.3852 23.4139 36.3805 23.3136 36.3957 23.2317C36.4085 23.1623 36.4326 23.1221 36.4793 23.0894C36.5365 23.0494 36.6541 23.003 36.8917 22.9908C39.0681 22.8795 41.2435 22.8841 43.4265 22.8886C43.9164 22.8896 44.4067 22.8906 44.8975 22.8904C45.2605 22.8902 45.5863 22.8333 45.7902 22.6047C45.9951 22.3751 46.0075 22.05 45.9663 21.7127C45.796 20.3213 45.5444 18.9432 45.1212 17.5932C43.2715 11.6934 39.49 7.40873 34.0606 4.5343C31.5223 3.19051 28.7884 2.51979 25.9561 2.26058C25.7077 2.23784 25.4982 2.22279 25.3306 2.23265C25.1642 2.24245 24.9929 2.27858 24.8604 2.4003C24.7274 2.52251 24.6784 2.68972 24.6562 2.85197C24.6339 3.01476 24.6332 3.21952 24.6361 3.45936C24.6385 3.66377 24.6414 3.8677 24.6443 4.07128C24.6536 4.72252 24.6629 5.37015 24.6559 6.01848C24.6371 7.7575 24.6679 9.49848 24.7915 11.2364C24.8158 11.5781 24.7529 11.7288 24.6839 11.7966C24.6166 11.8626 24.4726 11.9186 24.1501 11.8826C24.1178 11.879 24.0896 11.88 24.0732 11.8808C24.0489 11.882 24.0519 11.8823 24.0432 11.8825C23.7755 11.8884 23.5939 11.8905 23.462 11.8772C23.3296 11.8639 23.2941 11.8387 23.2833 11.8287C23.2729 11.8191 23.2459 11.7871 23.2236 11.6592C23.2013 11.5312 23.1908 11.3547 23.177 11.0934C23.1669 10.9013 23.1702 10.7172 23.1737 10.5227C23.1758 10.4073 23.1779 10.2883 23.1773 10.1618C23.1759 9.83575 23.155 9.48931 23.0522 9.13522ZM29.5897 45.1108L29.6004 45.109L29.6109 45.1062C32.953 44.2281 35.923 42.6338 38.5387 40.4098C42.2329 37.2687 44.4661 33.2375 45.6009 28.5956C45.9102 27.3308 46.0461 26.0272 46.0242 24.6434L46.0204 24.3973H45.7743C45.4039 24.3973 45.0377 24.3983 44.6744 24.3992C43.8248 24.4014 42.9909 24.4035 42.156 24.3935C41.7455 24.3886 41.4073 24.4864 41.1741 24.737C40.9469 24.9812 40.8641 25.3237 40.8498 25.7039C40.7984 27.0703 40.4781 28.401 39.9645 29.6656C37.4418 35.8767 32.8944 39.5366 26.2022 40.5092C26.1799 40.5124 26.1546 40.5158 26.1277 40.5194C26.0668 40.5276 25.9975 40.5369 25.9349 40.5482C25.8409 40.5652 25.7334 40.5911 25.6328 40.6403C25.5288 40.6911 25.4276 40.769 25.3564 40.8895C25.2859 41.0088 25.2573 41.149 25.2616 41.3039C25.2883 42.2784 25.3276 43.2533 25.3672 44.2339C25.3828 44.6213 25.3985 45.0096 25.4134 45.3991L25.4224 45.6338L25.6572 45.6395C26.6986 45.6647 27.6738 45.4755 28.6603 45.2842C28.9682 45.2244 29.2772 45.1645 29.5897 45.1108ZM5.749 12.2817L5.74886 12.2817L5.74407 12.2893C3.64681 15.6366 2.47422 19.266 2.36925 23.2302L2.36246 23.4868H2.61916C3.01357 23.4868 3.39976 23.4846 3.78027 23.4824C4.67655 23.4772 5.54127 23.4722 6.40743 23.497C6.76559 23.5073 7.06068 23.4337 7.26495 23.2133C7.4585 23.0044 7.52329 22.7107 7.55203 22.4064C8.03842 17.2565 10.4933 13.231 14.6849 10.2369C16.8324 8.70298 19.2655 7.81333 21.9013 7.47124C22.154 7.43845 22.3641 7.41115 22.5266 7.37174C22.6892 7.33231 22.8475 7.2715 22.9634 7.14148C23.0806 7.01004 23.1208 6.84606 23.1373 6.68054C23.1537 6.5164 23.1499 6.30823 23.1447 6.05907C23.1342 5.55572 23.1114 5.05323 23.0884 4.55405L23.0855 4.49326C23.0634 4.01363 23.0413 3.53713 23.0295 3.06073C23.0235 2.81645 22.9713 2.56922 22.7856 2.40929C22.5961 2.24611 22.3427 2.23711 22.0956 2.28124C21.8353 2.3277 21.5731 2.36692 21.3069 2.4067L21.3024 2.40737C21.0388 2.44676 20.7712 2.48675 20.5044 2.53427C14.2137 3.65462 9.36067 6.95504 5.749 12.2817Z" fill="#B53D3D" stroke="#B53D3D" stroke-width="0.5"/>
<path d="M25.5079 27.7498C25.5173 27.915 25.5236 28.0125 25.5347 28.1094C25.6676 29.2741 25.6304 29.3165 24.4706 29.3201C23.0632 29.3245 23.0695 29.3244 23.0385 27.8919C23.0264 27.3317 22.944 26.7715 22.9573 26.2127C22.9717 25.6043 22.6724 25.4764 22.1363 25.4985C21.3284 25.5316 20.5177 25.4912 19.7093 25.5181C19.2294 25.5341 19.0475 25.346 19.0665 24.877C19.0892 24.3192 19.0719 23.7597 19.0719 23.1459C20.0922 22.9993 21.0838 22.9005 22.079 22.9464C22.7216 22.9761 22.9464 22.7581 22.9122 22.1085C22.8613 21.141 22.899 20.1689 22.899 19.244C23.0245 19.1771 23.0647 19.14 23.1091 19.1342C25.319 18.8456 25.3191 18.8459 25.4491 21.0444C25.4535 21.1175 25.4562 21.1907 25.4586 21.2639C25.5121 22.9291 25.5121 22.9307 27.1577 22.9098C27.4022 22.9067 27.6463 22.879 27.8907 22.8664C28.1842 22.8512 28.4943 22.7727 28.7687 22.8388C29.8967 23.1104 29.1314 24.0575 29.3652 24.6609C29.5107 25.0363 29.3386 25.395 28.7548 25.3747C27.9733 25.3474 27.1875 25.4558 26.4051 25.4383C25.7231 25.4231 25.4043 25.6416 25.4912 26.3644C25.5434 26.798 25.5048 27.2423 25.5079 27.7498Z" fill="#3D5FB5"/>
<path d="M26.4258 6.32031H28.9551C29.2741 6.32031 29.6224 6.33659 30 6.36914C30.3841 6.39518 30.765 6.46354 31.1426 6.57422C31.5267 6.67839 31.8945 6.84115 32.2461 7.0625C32.6042 7.28385 32.9199 7.58659 33.1934 7.9707C33.4668 8.34831 33.6849 8.82357 33.8477 9.39648C34.0169 9.9694 34.1016 10.666 34.1016 11.4863V12.0723C34.1016 12.9642 34.0234 13.7292 33.8672 14.3672C33.7174 14.9987 33.5156 15.5326 33.2617 15.9688C33.0078 16.3984 32.7116 16.7435 32.373 17.0039C32.041 17.2643 31.6927 17.4629 31.3281 17.5996C30.9701 17.7298 30.6055 17.8177 30.2344 17.8633C29.8698 17.9023 29.5247 17.9219 29.1992 17.9219H28.9551V23H26.4258V6.32031ZM29.082 16.0664C29.5378 16.0664 29.9219 16.0013 30.2344 15.8711C30.5469 15.7344 30.7943 15.526 30.9766 15.2461C31.1654 14.9596 31.2988 14.5951 31.377 14.1523C31.4616 13.7031 31.5039 13.166 31.5039 12.541V11.0371C31.5039 10.5423 31.4681 10.1159 31.3965 9.75781C31.3249 9.39323 31.1947 9.09375 31.0059 8.85938C30.8236 8.625 30.5762 8.45247 30.2637 8.3418C29.9512 8.22461 29.5573 8.16602 29.082 8.16602H28.9551V16.0664H29.082ZM39.248 23.1465C38.9616 23.1465 38.6686 23.1237 38.3691 23.0781C38.0762 23.0326 37.7897 22.9382 37.5098 22.7949C37.2363 22.6517 36.9759 22.4466 36.7285 22.1797C36.4876 21.9128 36.276 21.5612 36.0938 21.125C35.9115 20.6888 35.7682 20.1517 35.6641 19.5137C35.5599 18.8757 35.5078 18.1139 35.5078 17.2285V15.1191C35.5078 14.2467 35.5599 13.5013 35.6641 12.8828C35.7747 12.2578 35.9212 11.7337 36.1035 11.3105C36.2923 10.8874 36.5104 10.5521 36.7578 10.3047C37.0052 10.0508 37.2656 9.85872 37.5391 9.72852C37.819 9.5918 38.1055 9.50391 38.3984 9.46484C38.6914 9.41927 38.9779 9.39648 39.2578 9.39648C39.5247 9.39648 39.8014 9.41602 40.0879 9.45508C40.3743 9.49414 40.6543 9.57878 40.9277 9.70898C41.2012 9.83268 41.4583 10.0215 41.6992 10.2754C41.9466 10.5228 42.1615 10.8581 42.3438 11.2812C42.5326 11.7044 42.679 12.2318 42.7832 12.8633C42.8939 13.4883 42.9492 14.2402 42.9492 15.1191V17.2285C42.9492 18.1009 42.8939 18.8529 42.7832 19.4844C42.6725 20.1159 42.5228 20.6497 42.334 21.0859C42.1452 21.5221 41.9271 21.877 41.6797 22.1504C41.4323 22.4173 41.1719 22.6257 40.8984 22.7754C40.625 22.9251 40.3451 23.0228 40.0586 23.0684C39.7786 23.1204 39.5085 23.1465 39.248 23.1465ZM39.2676 21.2422C39.4889 21.2422 39.6745 21.1868 39.8242 21.0762C39.9805 20.959 40.1042 20.7702 40.1953 20.5098C40.293 20.2493 40.3613 19.9076 40.4004 19.4844C40.446 19.0547 40.4688 18.5241 40.4688 17.8926V14.582C40.4688 13.9505 40.446 13.4199 40.4004 12.9902C40.3613 12.5605 40.293 12.2155 40.1953 11.9551C40.1042 11.6882 39.9805 11.4961 39.8242 11.3789C39.6745 11.2617 39.4889 11.2031 39.2676 11.2031C39.0332 11.2031 38.8346 11.2617 38.6719 11.3789C38.5156 11.4961 38.3854 11.6882 38.2812 11.9551C38.1771 12.2155 38.1022 12.5605 38.0566 12.9902C38.0111 13.4199 37.9883 13.9505 37.9883 14.582V17.8926C37.9883 18.5241 38.0111 19.0547 38.0566 19.4844C38.1022 19.9076 38.1771 20.2493 38.2812 20.5098C38.3854 20.7702 38.5156 20.959 38.6719 21.0762C38.8346 21.1868 39.0332 21.2422 39.2676 21.2422ZM45.1758 5.23633H47.6465V15.4609H47.7246L50.4199 9.55273H52.793L49.8047 15.7051L53.0762 23H50.5566L47.7246 16.3301H47.6465V23H45.1758V5.23633ZM57.5781 23.1465C56.9987 23.1465 56.4844 23.0391 56.0352 22.8242C55.5924 22.6094 55.2181 22.2741 54.9121 21.8184C54.6061 21.3626 54.375 20.7799 54.2188 20.0703C54.0625 19.3542 53.9844 18.4948 53.9844 17.4922V14.9531C53.9844 14.1003 54.0462 13.3711 54.1699 12.7656C54.3001 12.1536 54.4661 11.6426 54.668 11.2324C54.8763 10.8158 55.1139 10.487 55.3809 10.2461C55.6543 10.0052 55.9342 9.82292 56.2207 9.69922C56.5072 9.56901 56.7904 9.48763 57.0703 9.45508C57.3568 9.41602 57.6204 9.39648 57.8613 9.39648C58.304 9.39648 58.7305 9.46484 59.1406 9.60156C59.5508 9.73177 59.9121 9.95964 60.2246 10.2852C60.5371 10.6042 60.7845 11.0339 60.9668 11.5742C61.1556 12.1146 61.25 12.7884 61.25 13.5957C61.25 13.8691 61.2402 14.1458 61.2207 14.4258C61.2077 14.7057 61.1882 14.9824 61.1621 15.2559C61.1361 15.5228 61.1003 15.7832 61.0547 16.0371C61.0156 16.291 60.9733 16.5254 60.9277 16.7402H56.4648V18.1074C56.4648 18.6934 56.4876 19.1882 56.5332 19.5918C56.5788 19.9889 56.6536 20.3112 56.7578 20.5586C56.8685 20.7995 57.015 20.9753 57.1973 21.0859C57.3861 21.1901 57.6204 21.2422 57.9004 21.2422C58.0501 21.2422 58.1966 21.2129 58.3398 21.1543C58.4831 21.0892 58.6068 20.985 58.7109 20.8418C58.8216 20.6986 58.9095 20.5098 58.9746 20.2754C59.0397 20.0345 59.0723 19.7383 59.0723 19.3867V18.9668H61.1328V19.4844C61.1328 20.7604 60.8268 21.6914 60.2148 22.2773C59.6094 22.8568 58.7305 23.1465 57.5781 23.1465ZM58.9453 15.0801C58.9518 15.0085 58.9583 14.9141 58.9648 14.7969C58.9714 14.6732 58.9746 14.5462 58.9746 14.416C58.9811 14.2858 58.9844 14.1589 58.9844 14.0352C58.9844 13.9049 58.9844 13.7943 58.9844 13.7031C58.9844 12.8177 58.8802 12.1797 58.6719 11.7891C58.4635 11.3984 58.1543 11.2031 57.7441 11.2031C57.5293 11.2031 57.3405 11.2552 57.1777 11.3594C57.015 11.457 56.8815 11.6263 56.7773 11.8672C56.6732 12.1016 56.5951 12.4141 56.543 12.8047C56.4909 13.1953 56.4648 13.6803 56.4648 14.2598V15.0801H58.9453ZM63.4961 6.32031H66.123C66.5202 6.32031 66.9303 6.33333 67.3535 6.35938C67.7832 6.37891 68.1999 6.44727 68.6035 6.56445C69.0137 6.68164 69.3978 6.86393 69.7559 7.11133C70.1204 7.35221 70.4395 7.69401 70.7129 8.13672C70.9863 8.57292 71.2012 9.1263 71.3574 9.79688C71.5202 10.4609 71.6016 11.2747 71.6016 12.2383V17.082C71.6016 18.0456 71.5202 18.8626 71.3574 19.5332C71.2012 20.2038 70.9863 20.7572 70.7129 21.1934C70.4395 21.6296 70.1204 21.9714 69.7559 22.2188C69.3978 22.4596 69.0137 22.6387 68.6035 22.7559C68.1999 22.873 67.7832 22.9447 67.3535 22.9707C66.9303 22.9902 66.5202 23 66.123 23H63.4961V6.32031ZM66.6699 21.2324C67.1257 21.2324 67.5 21.1738 67.793 21.0566C68.0924 20.9395 68.3268 20.7344 68.4961 20.4414C68.6719 20.1419 68.7923 19.7383 68.8574 19.2305C68.9225 18.7161 68.9551 18.0684 68.9551 17.2871V12.1113C68.9551 11.3301 68.9225 10.6855 68.8574 10.1777C68.7923 9.66341 68.6719 9.25977 68.4961 8.9668C68.3268 8.66732 68.0924 8.45898 67.793 8.3418C67.5 8.22461 67.1257 8.16602 66.6699 8.16602H66.0254V21.2324H66.6699ZM76.9531 23.1465C76.3737 23.1465 75.8594 23.0391 75.4102 22.8242C74.9674 22.6094 74.5931 22.2741 74.2871 21.8184C73.9811 21.3626 73.75 20.7799 73.5938 20.0703C73.4375 19.3542 73.3594 18.4948 73.3594 17.4922V14.9531C73.3594 14.1003 73.4212 13.3711 73.5449 12.7656C73.6751 12.1536 73.8411 11.6426 74.043 11.2324C74.2513 10.8158 74.4889 10.487 74.7559 10.2461C75.0293 10.0052 75.3092 9.82292 75.5957 9.69922C75.8822 9.56901 76.1654 9.48763 76.4453 9.45508C76.7318 9.41602 76.9954 9.39648 77.2363 9.39648C77.679 9.39648 78.1055 9.46484 78.5156 9.60156C78.9258 9.73177 79.2871 9.95964 79.5996 10.2852C79.9121 10.6042 80.1595 11.0339 80.3418 11.5742C80.5306 12.1146 80.625 12.7884 80.625 13.5957C80.625 13.8691 80.6152 14.1458 80.5957 14.4258C80.5827 14.7057 80.5632 14.9824 80.5371 15.2559C80.5111 15.5228 80.4753 15.7832 80.4297 16.0371C80.3906 16.291 80.3483 16.5254 80.3027 16.7402H75.8398V18.1074C75.8398 18.6934 75.8626 19.1882 75.9082 19.5918C75.9538 19.9889 76.0286 20.3112 76.1328 20.5586C76.2435 20.7995 76.39 20.9753 76.5723 21.0859C76.7611 21.1901 76.9954 21.2422 77.2754 21.2422C77.4251 21.2422 77.5716 21.2129 77.7148 21.1543C77.8581 21.0892 77.9818 20.985 78.0859 20.8418C78.1966 20.6986 78.2845 20.5098 78.3496 20.2754C78.4147 20.0345 78.4473 19.7383 78.4473 19.3867V18.9668H80.5078V19.4844C80.5078 20.7604 80.2018 21.6914 79.5898 22.2773C78.9844 22.8568 78.1055 23.1465 76.9531 23.1465ZM78.3203 15.0801C78.3268 15.0085 78.3333 14.9141 78.3398 14.7969C78.3464 14.6732 78.3496 14.5462 78.3496 14.416C78.3561 14.2858 78.3594 14.1589 78.3594 14.0352C78.3594 13.9049 78.3594 13.7943 78.3594 13.7031C78.3594 12.8177 78.2552 12.1797 78.0469 11.7891C77.8385 11.3984 77.5293 11.2031 77.1191 11.2031C76.9043 11.2031 76.7155 11.2552 76.5527 11.3594C76.39 11.457 76.2565 11.6263 76.1523 11.8672C76.0482 12.1016 75.9701 12.4141 75.918 12.8047C75.8659 13.1953 75.8398 13.6803 75.8398 14.2598V15.0801H78.3203ZM84.4824 16.1738L81.8262 9.55273H84.3555L85.791 13.957H85.8105L87.334 9.55273H89.6973L87.1484 15.9395L90.0098 23H87.4805L85.8203 18.3613H85.7422L84.0625 23H81.6895L84.4824 16.1738ZM93.9941 23.7617V27.3457H91.5234V9.55273H93.457L93.6816 10.9688C93.7923 10.7865 93.9225 10.6009 94.0723 10.4121C94.2285 10.2233 94.4076 10.0573 94.6094 9.91406C94.8177 9.76432 95.0488 9.64388 95.3027 9.55273C95.5632 9.45508 95.8529 9.40625 96.1719 9.40625C96.3086 9.40625 96.4714 9.41927 96.6602 9.44531C96.8555 9.47135 97.054 9.53646 97.2559 9.64062C97.4642 9.74479 97.6693 9.90104 97.8711 10.1094C98.0794 10.3112 98.2617 10.5911 98.418 10.9492C98.5807 11.3073 98.7109 11.7533 98.8086 12.2871C98.9128 12.821 98.9648 13.4688 98.9648 14.2305V18.3027C98.9648 19.0645 98.9128 19.7122 98.8086 20.2461C98.7109 20.7799 98.5807 21.2259 98.418 21.584C98.2552 21.9421 98.0697 22.2253 97.8613 22.4336C97.653 22.6419 97.4414 22.7982 97.2266 22.9023C97.0117 23.0065 96.8034 23.0716 96.6016 23.0977C96.3997 23.1302 96.224 23.1465 96.0742 23.1465C95.5534 23.1465 95.1172 23.0456 94.7656 22.8438C94.4206 22.6419 94.1374 22.3978 93.916 22.1113L93.9941 23.7617ZM93.9941 20.2559C94.0462 20.3861 94.1081 20.5098 94.1797 20.627C94.2578 20.7441 94.3457 20.8483 94.4434 20.9395C94.5475 21.0306 94.6615 21.1055 94.7852 21.1641C94.9154 21.2161 95.0651 21.2422 95.2344 21.2422C95.4167 21.2422 95.5827 21.2096 95.7324 21.1445C95.8822 21.0729 96.0124 20.9492 96.123 20.7734C96.2337 20.5911 96.3184 20.3405 96.377 20.0215C96.4421 19.7025 96.4746 19.2923 96.4746 18.791V13.6445C96.4746 13.1432 96.4421 12.7363 96.377 12.4238C96.3184 12.1048 96.2337 11.8542 96.123 11.6719C96.0189 11.4896 95.8919 11.3659 95.7422 11.3008C95.5924 11.2357 95.4264 11.2031 95.2441 11.2031C94.9316 11.2031 94.6745 11.2975 94.4727 11.4863C94.2773 11.6686 94.1178 11.8835 93.9941 12.1309V20.2559ZM101.23 5.23633H103.701V23H101.23V5.23633ZM109.678 23.1465C109.391 23.1465 109.098 23.1237 108.799 23.0781C108.506 23.0326 108.219 22.9382 107.939 22.7949C107.666 22.6517 107.406 22.4466 107.158 22.1797C106.917 21.9128 106.706 21.5612 106.523 21.125C106.341 20.6888 106.198 20.1517 106.094 19.5137C105.99 18.8757 105.938 18.1139 105.938 17.2285V15.1191C105.938 14.2467 105.99 13.5013 106.094 12.8828C106.204 12.2578 106.351 11.7337 106.533 11.3105C106.722 10.8874 106.94 10.5521 107.188 10.3047C107.435 10.0508 107.695 9.85872 107.969 9.72852C108.249 9.5918 108.535 9.50391 108.828 9.46484C109.121 9.41927 109.408 9.39648 109.688 9.39648C109.954 9.39648 110.231 9.41602 110.518 9.45508C110.804 9.49414 111.084 9.57878 111.357 9.70898C111.631 9.83268 111.888 10.0215 112.129 10.2754C112.376 10.5228 112.591 10.8581 112.773 11.2812C112.962 11.7044 113.109 12.2318 113.213 12.8633C113.324 13.4883 113.379 14.2402 113.379 15.1191V17.2285C113.379 18.1009 113.324 18.8529 113.213 19.4844C113.102 20.1159 112.952 20.6497 112.764 21.0859C112.575 21.5221 112.357 21.877 112.109 22.1504C111.862 22.4173 111.602 22.6257 111.328 22.7754C111.055 22.9251 110.775 23.0228 110.488 23.0684C110.208 23.1204 109.938 23.1465 109.678 23.1465ZM109.697 21.2422C109.919 21.2422 110.104 21.1868 110.254 21.0762C110.41 20.959 110.534 20.7702 110.625 20.5098C110.723 20.2493 110.791 19.9076 110.83 19.4844C110.876 19.0547 110.898 18.5241 110.898 17.8926V14.582C110.898 13.9505 110.876 13.4199 110.83 12.9902C110.791 12.5605 110.723 12.2155 110.625 11.9551C110.534 11.6882 110.41 11.4961 110.254 11.3789C110.104 11.2617 109.919 11.2031 109.697 11.2031C109.463 11.2031 109.264 11.2617 109.102 11.3789C108.945 11.4961 108.815 11.6882 108.711 11.9551C108.607 12.2155 108.532 12.5605 108.486 12.9902C108.441 13.4199 108.418 13.9505 108.418 14.582V17.8926C108.418 18.5241 108.441 19.0547 108.486 19.4844C108.532 19.9076 108.607 20.2493 108.711 20.5098C108.815 20.7702 108.945 20.959 109.102 21.0762C109.264 21.1868 109.463 21.2422 109.697 21.2422ZM115.566 9.55273H117.373L117.588 10.9199C117.861 10.4121 118.174 10.0312 118.525 9.77734C118.883 9.52344 119.248 9.39648 119.619 9.39648C120.329 9.39648 120.853 9.61458 121.191 10.0508C121.53 10.487 121.699 11.1413 121.699 12.0137C121.699 12.1243 121.689 12.2578 121.67 12.4141C121.657 12.5638 121.634 12.7233 121.602 12.8926C121.576 13.0553 121.54 13.2214 121.494 13.3906C121.455 13.5534 121.413 13.7031 121.367 13.8398H119.648V12.5898C119.648 12.3164 119.629 12.0918 119.59 11.916C119.557 11.7402 119.512 11.6003 119.453 11.4961C119.395 11.3854 119.326 11.3105 119.248 11.2715C119.17 11.2259 119.085 11.2031 118.994 11.2031C118.799 11.2031 118.617 11.2682 118.447 11.3984C118.285 11.5221 118.148 11.6979 118.037 11.9258V23H115.566V9.55273ZM126.504 23.1465C125.924 23.1465 125.41 23.0391 124.961 22.8242C124.518 22.6094 124.144 22.2741 123.838 21.8184C123.532 21.3626 123.301 20.7799 123.145 20.0703C122.988 19.3542 122.91 18.4948 122.91 17.4922V14.9531C122.91 14.1003 122.972 13.3711 123.096 12.7656C123.226 12.1536 123.392 11.6426 123.594 11.2324C123.802 10.8158 124.04 10.487 124.307 10.2461C124.58 10.0052 124.86 9.82292 125.146 9.69922C125.433 9.56901 125.716 9.48763 125.996 9.45508C126.283 9.41602 126.546 9.39648 126.787 9.39648C127.23 9.39648 127.656 9.46484 128.066 9.60156C128.477 9.73177 128.838 9.95964 129.15 10.2852C129.463 10.6042 129.71 11.0339 129.893 11.5742C130.081 12.1146 130.176 12.7884 130.176 13.5957C130.176 13.8691 130.166 14.1458 130.146 14.4258C130.133 14.7057 130.114 14.9824 130.088 15.2559C130.062 15.5228 130.026 15.7832 129.98 16.0371C129.941 16.291 129.899 16.5254 129.854 16.7402H125.391V18.1074C125.391 18.6934 125.413 19.1882 125.459 19.5918C125.505 19.9889 125.579 20.3112 125.684 20.5586C125.794 20.7995 125.941 20.9753 126.123 21.0859C126.312 21.1901 126.546 21.2422 126.826 21.2422C126.976 21.2422 127.122 21.2129 127.266 21.1543C127.409 21.0892 127.533 20.985 127.637 20.8418C127.747 20.6986 127.835 20.5098 127.9 20.2754C127.965 20.0345 127.998 19.7383 127.998 19.3867V18.9668H130.059V19.4844C130.059 20.7604 129.753 21.6914 129.141 22.2773C128.535 22.8568 127.656 23.1465 126.504 23.1465ZM127.871 15.0801C127.878 15.0085 127.884 14.9141 127.891 14.7969C127.897 14.6732 127.9 14.5462 127.9 14.416C127.907 14.2858 127.91 14.1589 127.91 14.0352C127.91 13.9049 127.91 13.7943 127.91 13.7031C127.91 12.8177 127.806 12.1797 127.598 11.7891C127.389 11.3984 127.08 11.2031 126.67 11.2031C126.455 11.2031 126.266 11.2552 126.104 11.3594C125.941 11.457 125.807 11.6263 125.703 11.8672C125.599 12.1016 125.521 12.4141 125.469 12.8047C125.417 13.1953 125.391 13.6803 125.391 14.2598V15.0801H127.871ZM132.266 9.55273H134.072L134.287 10.9199C134.561 10.4121 134.873 10.0312 135.225 9.77734C135.583 9.52344 135.947 9.39648 136.318 9.39648C137.028 9.39648 137.552 9.61458 137.891 10.0508C138.229 10.487 138.398 11.1413 138.398 12.0137C138.398 12.1243 138.389 12.2578 138.369 12.4141C138.356 12.5638 138.333 12.7233 138.301 12.8926C138.275 13.0553 138.239 13.2214 138.193 13.3906C138.154 13.5534 138.112 13.7031 138.066 13.8398H136.348V12.5898C136.348 12.3164 136.328 12.0918 136.289 11.916C136.257 11.7402 136.211 11.6003 136.152 11.4961C136.094 11.3854 136.025 11.3105 135.947 11.2715C135.869 11.2259 135.785 11.2031 135.693 11.2031C135.498 11.2031 135.316 11.2682 135.146 11.3984C134.984 11.5221 134.847 11.6979 134.736 11.9258V23H132.266V9.55273Z" fill="#DECB23"/>
</svg>
