<svg width="30" height="30" viewBox="0 0 30 30" fill="none" xmlns="http://www.w3.org/2000/svg">
<circle cx="15" cy="15" r="15" fill="url(#paint0_linear_1_333)"/>
<g clip-path="url(#clip0_1_333)">
<path fill-rule="evenodd" clip-rule="evenodd" d="M20.8655 19.9582C20.8655 19.9582 18.9741 21.4752 15.2103 20.8474C12.3547 20.3711 10.8317 17.2233 10.8317 15.5313C10.8317 11.5197 13.8008 10.6067 15.8082 10.6067C17.8155 10.6067 19.125 12.5638 19.125 14.079C19.125 15.5942 18.0533 16.9196 16.3855 16.9196C14.7177 16.9196 14.2238 15.7487 14.2238 14.6723C14.2238 13.5958 15.0947 13.2166 15.889 13.2166C16.6832 13.2166 16.9552 13.8947 16.9552 14.4775C16.9552 15.0603 16.503 15.269 16.1258 15.269C15.7487 15.269 15.7114 15.0788 15.567 14.8788C15.4226 14.6788 15.7511 13.9219 15.2103 13.9219C14.6695 13.9219 14.5687 14.7921 14.5687 14.7921C14.5687 14.7921 14.7658 16.4717 16.3855 16.4428C18.0052 16.4138 18.7735 15.1616 18.5502 13.9219C18.3269 12.6822 17.1238 11.3649 15.0123 11.631C12.9007 11.8972 12.0386 14.0308 12.4186 16.3108C12.7986 18.5908 15.5301 19.9118 17.6777 19.4366C19.8253 18.9613 21.9643 17.4065 21.9643 13.4645C21.9643 9.52249 18.5502 7.15299 14.4793 7.54349C10.4083 7.934 7.88128 11.4931 8.04304 15.7694C8.20479 20.0457 12.2625 22.3747 15.6937 22.4948C19.125 22.6148 21.2284 20.6286 21.2284 20.6286C21.2284 20.6286 21.7015 20.2067 21.516 19.8773C21.3306 19.5479 20.8655 19.9582 20.8655 19.9582Z" fill="white"/>
</g>
<defs>
<linearGradient id="paint0_linear_1_333" x1="0" y1="0" x2="0" y2="30" gradientUnits="userSpaceOnUse">
<stop stop-color="#FE9F92"/>
<stop offset="1" stop-color="#F66F71"/>
</linearGradient>
<clipPath id="clip0_1_333">
<rect width="15" height="15" fill="white" transform="translate(7.5 7.5)"/>
</clipPath>
</defs>
</svg>
